<svg xmlns="http://www.w3.org/2000/svg" viewBox="0 0 500 300" width="500" height="300">
  <rect width="500" height="300" fill="#2a1854"/>
  <g opacity="0.3">
    <line x1="250" y1="150" x2="950.0" y2="150.0" stroke="#8b7cc8" stroke-width="0.7"/>
    <line x1="250" y1="150" x2="896.7" y2="417.9" stroke="#8b7cc8" stroke-width="0.7"/>
    <line x1="250" y1="150" x2="745.0" y2="645.0" stroke="#8b7cc8" stroke-width="0.7"/>
    <line x1="250" y1="150" x2="517.9" y2="796.7" stroke="#8b7cc8" stroke-width="0.7"/>
    <line x1="250" y1="150" x2="250.0" y2="850.0" stroke="#8b7cc8" stroke-width="0.7"/>
    <line x1="250" y1="150" x2="-17.9" y2="796.7" stroke="#8b7cc8" stroke-width="0.7"/>
    <line x1="250" y1="150" x2="-245.0" y2="645.0" stroke="#8b7cc8" stroke-width="0.7"/>
    <line x1="250" y1="150" x2="-396.7" y2="417.9" stroke="#8b7cc8" stroke-width="0.7"/>
    <line x1="250" y1="150" x2="-450.0" y2="150.0" stroke="#8b7cc8" stroke-width="0.7"/>
    <line x1="250" y1="150" x2="-396.7" y2="-117.9" stroke="#8b7cc8" stroke-width="0.7"/>
    <line x1="250" y1="150" x2="-245.0" y2="-345.0" stroke="#8b7cc8" stroke-width="0.7"/>
    <line x1="250" y1="150" x2="-17.9" y2="-496.7" stroke="#8b7cc8" stroke-width="0.7"/>
    <line x1="250" y1="150" x2="250.0" y2="-550.0" stroke="#8b7cc8" stroke-width="0.7"/>
    <line x1="250" y1="150" x2="517.9" y2="-496.7" stroke="#8b7cc8" stroke-width="0.7"/>
    <line x1="250" y1="150" x2="745.0" y2="-345.0" stroke="#8b7cc8" stroke-width="0.7"/>
    <line x1="250" y1="150" x2="896.7" y2="-117.9" stroke="#8b7cc8" stroke-width="0.7"/>
    <path d="M 307.6 150.0 Q 302.3 160.4 301.5 171.3 Q 296.0 180.7 293.7 193.7 Q 281.8 197.6 272.9 205.4 Q 260.8 204.4 250.0 208.1 Q 239.5 202.7 228.5 202.0 Q 221.1 193.2 211.6 188.4 Q 205.1 180.0 194.2 173.1 Q 195.1 160.9 191.4 150.0 Q 196.9 139.4 197.6 128.3 Q 206.4 120.9 211.2 111.2 Q 219.8 104.8 226.7 93.7 Q 239.0 94.7 250.0 91.0 Q 260.7 96.4 271.9 97.2 Q 279.4 106.0 289.1 110.9 Q 295.6 119.5 306.7 126.5 Q 304.9 139.1 307.6 150.0 " fill="none" stroke="#7c6fad" stroke-width="0.5"/>
    <path d="M 371.8 150.0 Q 360.6 172.0 359.1 195.2 Q 340.8 210.7 330.8 230.8 Q 308.7 237.9 292.3 252.2 Q 271.4 257.6 250.0 272.7 Q 227.8 261.4 204.5 259.9 Q 188.8 241.5 168.5 231.5 Q 161.4 209.2 147.0 192.7 Q 141.6 171.6 126.3 150.0 Q 137.7 127.7 139.2 104.1 Q 157.7 88.3 167.8 67.8 Q 190.3 60.6 207.0 46.1 Q 229.7 48.0 250.0 41.3 Q 271.1 44.2 296.3 38.3 Q 312.1 57.0 332.8 67.2 Q 340.1 89.8 354.8 106.6 Q 358.4 128.4 371.8 150.0 " fill="none" stroke="#7c6fad" stroke-width="0.5"/>
    <path d="M 418.7 150.0 Q 402.9 180.4 400.7 212.4 Q 384.6 239.9 378.2 278.2 Q 343.2 289.5 317.2 312.3 Q 281.7 309.4 250.0 320.1 Q 219.3 304.2 187.0 302.0 Q 159.3 285.7 120.8 279.2 Q 109.4 244.0 86.4 217.8 Q 89.3 182.0 78.5 150.0 Q 94.5 119.1 96.7 86.5 Q 113.2 58.6 119.8 19.8 Q 155.3 8.3 181.7 -14.9 Q 217.8 -12.0 250.0 -22.9 Q 281.2 -6.8 314.0 -4.6 Q 342.1 12.1 381.2 18.8 Q 392.8 54.6 416.2 81.2 Q 410.7 118.0 418.7 150.0 " fill="none" stroke="#7c6fad" stroke-width="0.5"/>
    <path d="M 488.0 150.0 Q 466.0 193.0 463.0 238.2 Q 427.3 268.4 407.7 307.7 Q 372.8 333.8 344.7 378.5 Q 294.7 374.6 250.0 389.9 Q 206.7 367.7 161.1 364.7 Q 130.6 328.7 90.9 309.1 Q 77.1 265.5 49.1 233.2 Q 38.3 192.1 8.3 150.0 Q 30.6 106.4 33.6 60.4 Q 69.8 29.6 89.6 -10.4 Q 133.5 -24.3 166.1 -52.6 Q 207.6 -63.4 250.0 -93.6 Q 294.0 -71.1 340.4 -68.2 Q 371.4 -31.6 411.7 -11.7 Q 425.8 32.5 454.4 65.4 Q 461.7 107.9 488.0 150.0 " fill="none" stroke="#7c6fad" stroke-width="0.5"/>
    <path d="M 524.2 150.0 Q 516.7 203.1 531.3 266.5 Q 484.3 306.6 458.7 358.7 Q 401.7 377.0 359.4 414.1 Q 301.6 409.2 250.0 426.5 Q 196.5 418.9 132.6 433.5 Q 92.2 386.2 39.6 360.4 Q 21.1 302.9 -16.2 260.3 Q -11.4 202.0 -28.8 150.0 Q -21.0 96.1 -35.6 31.7 Q 12.0 -9.0 38.0 -62.0 Q 95.9 -80.7 138.8 -118.4 Q 197.6 -113.5 250.0 -131.2 Q 300.7 -104.9 354.0 -101.1 Q 399.9 -74.3 463.7 -63.7 Q 482.5 -5.4 520.5 37.9 Q 511.4 98.0 524.2 150.0 " fill="none" stroke="#7c6fad" stroke-width="0.5"/>
    <path d="M 598.6 150.0 Q 566.2 212.9 561.7 279.1 Q 509.3 323.3 480.7 380.7 Q 429.9 419.2 388.8 485.0 Q 315.5 479.1 250.0 501.4 Q 186.6 468.8 119.8 464.3 Q 75.3 411.5 17.4 382.6 Q -21.4 331.3 -87.6 289.8 Q -81.7 216.0 -104.2 150.0 Q -71.4 86.1 -66.9 18.7 Q -13.7 -26.2 15.4 -84.6 Q 67.2 -123.6 109.1 -190.2 Q 183.5 -184.3 250.0 -207.0 Q 314.4 -174.0 382.3 -169.5 Q 427.7 -115.9 486.6 -86.6 Q 525.7 -34.2 592.8 8.0 Q 581.7 84.0 598.6 150.0 " fill="none" stroke="#7c6fad" stroke-width="0.5"/>
    <path d="M 679.6 150.0 Q 640.0 227.6 634.8 309.4 Q 570.4 364.1 535.3 435.3 Q 457.3 460.2 399.4 510.7 Q 325.5 529.5 250.0 582.8 Q 171.8 543.0 89.4 537.8 Q 34.2 473.0 -37.6 437.6 Q -62.8 359.0 -113.7 300.6 Q -106.9 221.0 -130.6 150.0 Q -120.4 76.3 -140.8 -11.9 Q -75.5 -67.5 -39.9 -139.9 Q 39.3 -165.3 98.1 -216.7 Q 178.4 -209.9 250.0 -233.8 Q 324.3 -223.4 413.1 -243.8 Q 469.2 -178.1 542.2 -142.2 Q 567.9 -62.4 619.7 -3.1 Q 632.5 73.9 679.6 150.0 " fill="none" stroke="#7c6fad" stroke-width="0.5"/>
    <path d="M 703.6 150.0 Q 661.3 231.8 655.3 317.9 Q 611.8 391.8 594.5 494.5 Q 500.5 525.0 430.7 586.3 Q 335.2 578.5 250.0 607.3 Q 167.5 564.7 80.7 558.7 Q 6.3 514.7 -97.1 497.1 Q -127.9 402.5 -189.8 332.2 Q -182.0 235.9 -211.1 150.0 Q -168.2 66.8 -162.2 -20.7 Q -117.7 -95.7 -99.8 -199.8 Q -4.4 -230.8 66.4 -293.2 Q 163.4 -285.4 250.0 -314.8 Q 333.9 -271.6 422.2 -265.6 Q 481.0 -195.8 557.5 -157.5 Q 608.9 -89.8 696.7 -35.0 Q 682.0 64.1 703.6 150.0 " fill="none" stroke="#7c6fad" stroke-width="0.5"/>
    <path d="M 789.7 150.0 Q 739.8 247.4 733.1 350.1 Q 652.1 418.7 607.9 507.9 Q 509.9 539.0 437.2 602.1 Q 344.7 626.3 250.0 693.9 Q 151.8 643.7 48.3 637.0 Q -20.9 555.4 -110.8 510.8 Q -142.3 412.1 -205.9 338.9 Q -230.1 245.5 -298.1 150.0 Q -247.6 51.0 -240.9 -53.3 Q -158.7 -123.1 -113.8 -213.8 Q -14.3 -245.6 59.5 -309.8 Q 153.7 -334.0 250.0 -402.3 Q 349.7 -351.4 454.9 -344.7 Q 525.3 -262.0 616.8 -216.8 Q 648.8 -116.5 713.7 -42.1 Q 730.1 54.5 789.7 150.0 " fill="none" stroke="#7c6fad" stroke-width="0.5"/>
    <path d="M 803.0 150.0 Q 787.8 257.0 817.0 384.8 Q 722.3 465.6 670.7 570.7 Q 555.9 607.7 470.6 682.5 Q 354.0 672.7 250.0 707.7 Q 142.2 692.1 13.4 721.3 Q -68.0 626.0 -174.0 574.0 Q -211.4 458.3 -286.8 372.3 Q -277.0 254.8 -312.3 150.0 Q -259.8 48.6 -252.3 -58.1 Q -198.6 -149.8 -177.3 -277.3 Q -60.7 -315.0 25.9 -391.1 Q 144.3 -381.3 250.0 -417.0 Q 352.3 -364.1 459.8 -356.6 Q 552.2 -302.3 680.6 -280.6 Q 718.7 -163.2 795.4 -75.9 Q 777.0 45.2 803.0 150.0 " fill="none" stroke="#7c6fad" stroke-width="0.5"/>
    <path d="M 894.2 150.0 Q 834.5 266.3 826.2 388.7 Q 729.4 470.4 676.5 576.5 Q 582.4 647.5 506.4 768.9 Q 371.0 758.1 250.0 799.4 Q 132.8 739.2 9.4 731.0 Q -73.0 633.5 -180.1 580.1 Q -251.5 485.1 -373.6 408.3 Q -362.9 271.9 -404.5 150.0 Q -343.9 31.9 -335.7 -92.6 Q -237.5 -175.7 -183.8 -283.8 Q -87.8 -355.5 -10.3 -478.4 Q 127.2 -467.6 250.0 -509.6 Q 369.1 -448.7 494.6 -440.5 Q 578.4 -341.5 687.4 -287.4 Q 725.4 -167.7 802.5 -78.9 Q 822.6 36.1 894.2 150.0 " fill="none" stroke="#7c6fad" stroke-width="0.5"/>
    <path d="M 992.0 150.0 Q 923.8 284.0 914.8 425.4 Q 803.7 520.0 743.0 643.0 Q 608.3 686.2 508.2 773.4 Q 371.7 761.8 250.0 802.4 Q 123.7 785.0 -27.5 820.0 Q -122.9 708.0 -247.0 647.0 Q -290.5 511.2 -378.6 410.4 Q -367.0 272.7 -408.0 150.0 Q -390.2 22.7 -425.2 -129.7 Q -312.4 -225.8 -250.9 -350.9 Q -114.1 -394.9 -12.5 -483.8 Q 126.3 -472.1 250.0 -513.6 Q 378.4 -495.4 531.8 -530.3 Q 628.7 -416.8 754.9 -354.9 Q 799.3 -217.0 889.0 -114.7 Q 910.8 18.5 992.0 150.0 " fill="none" stroke="#7c6fad" stroke-width="0.5"/>
    <circle cx="308.3" cy="150.0" r="1.2" fill="#c4b5fd" opacity="0.5"/>
    <circle cx="366.7" cy="150.0" r="1.2" fill="#c4b5fd" opacity="0.5"/>
    <circle cx="425.0" cy="150.0" r="1.2" fill="#c4b5fd" opacity="0.5"/>
    <circle cx="483.3" cy="150.0" r="1.2" fill="#c4b5fd" opacity="0.5"/>
    <circle cx="541.7" cy="150.0" r="1.2" fill="#c4b5fd" opacity="0.5"/>
    <circle cx="303.9" cy="172.3" r="1.2" fill="#c4b5fd" opacity="0.5"/>
    <circle cx="357.8" cy="194.6" r="1.2" fill="#c4b5fd" opacity="0.5"/>
    <circle cx="411.7" cy="217.0" r="1.2" fill="#c4b5fd" opacity="0.5"/>
    <circle cx="465.6" cy="239.3" r="1.2" fill="#c4b5fd" opacity="0.5"/>
    <circle cx="519.5" cy="261.6" r="1.2" fill="#c4b5fd" opacity="0.5"/>
    <circle cx="291.2" cy="191.2" r="1.2" fill="#c4b5fd" opacity="0.5"/>
    <circle cx="332.5" cy="232.5" r="1.2" fill="#c4b5fd" opacity="0.5"/>
    <circle cx="373.7" cy="273.7" r="1.2" fill="#c4b5fd" opacity="0.5"/>
    <circle cx="415.0" cy="315.0" r="1.2" fill="#c4b5fd" opacity="0.5"/>
    <circle cx="272.3" cy="203.9" r="1.2" fill="#c4b5fd" opacity="0.5"/>
    <circle cx="294.6" cy="257.8" r="1.2" fill="#c4b5fd" opacity="0.5"/>
    <circle cx="317.0" cy="311.7" r="1.2" fill="#c4b5fd" opacity="0.5"/>
    <circle cx="250.0" cy="208.3" r="1.2" fill="#c4b5fd" opacity="0.5"/>
    <circle cx="250.0" cy="266.7" r="1.2" fill="#c4b5fd" opacity="0.5"/>
    <circle cx="250.0" cy="325.0" r="1.2" fill="#c4b5fd" opacity="0.5"/>
    <circle cx="227.7" cy="203.9" r="1.2" fill="#c4b5fd" opacity="0.5"/>
    <circle cx="205.4" cy="257.8" r="1.2" fill="#c4b5fd" opacity="0.5"/>
    <circle cx="183.0" cy="311.7" r="1.2" fill="#c4b5fd" opacity="0.5"/>
    <circle cx="208.8" cy="191.2" r="1.2" fill="#c4b5fd" opacity="0.5"/>
    <circle cx="167.5" cy="232.5" r="1.2" fill="#c4b5fd" opacity="0.5"/>
    <circle cx="126.3" cy="273.7" r="1.2" fill="#c4b5fd" opacity="0.5"/>
    <circle cx="85.0" cy="315.0" r="1.2" fill="#c4b5fd" opacity="0.5"/>
    <circle cx="196.1" cy="172.3" r="1.2" fill="#c4b5fd" opacity="0.5"/>
    <circle cx="142.2" cy="194.6" r="1.2" fill="#c4b5fd" opacity="0.5"/>
    <circle cx="88.3" cy="217.0" r="1.2" fill="#c4b5fd" opacity="0.5"/>
    <circle cx="34.4" cy="239.3" r="1.2" fill="#c4b5fd" opacity="0.5"/>
    <circle cx="-19.5" cy="261.6" r="1.2" fill="#c4b5fd" opacity="0.5"/>
    <circle cx="191.7" cy="150.0" r="1.2" fill="#c4b5fd" opacity="0.5"/>
    <circle cx="133.3" cy="150.0" r="1.2" fill="#c4b5fd" opacity="0.5"/>
    <circle cx="75.0" cy="150.0" r="1.2" fill="#c4b5fd" opacity="0.5"/>
    <circle cx="16.7" cy="150.0" r="1.2" fill="#c4b5fd" opacity="0.5"/>
    <circle cx="-41.7" cy="150.0" r="1.2" fill="#c4b5fd" opacity="0.5"/>
    <circle cx="196.1" cy="127.7" r="1.2" fill="#c4b5fd" opacity="0.5"/>
    <circle cx="142.2" cy="105.4" r="1.2" fill="#c4b5fd" opacity="0.5"/>
    <circle cx="88.3" cy="83.0" r="1.2" fill="#c4b5fd" opacity="0.5"/>
    <circle cx="34.4" cy="60.7" r="1.2" fill="#c4b5fd" opacity="0.5"/>
    <circle cx="-19.5" cy="38.4" r="1.2" fill="#c4b5fd" opacity="0.5"/>
    <circle cx="208.8" cy="108.8" r="1.2" fill="#c4b5fd" opacity="0.5"/>
    <circle cx="167.5" cy="67.5" r="1.2" fill="#c4b5fd" opacity="0.5"/>
    <circle cx="126.3" cy="26.3" r="1.2" fill="#c4b5fd" opacity="0.5"/>
    <circle cx="85.0" cy="-15.0" r="1.2" fill="#c4b5fd" opacity="0.5"/>
    <circle cx="227.7" cy="96.1" r="1.2" fill="#c4b5fd" opacity="0.5"/>
    <circle cx="205.4" cy="42.2" r="1.2" fill="#c4b5fd" opacity="0.5"/>
    <circle cx="183.0" cy="-11.7" r="1.2" fill="#c4b5fd" opacity="0.5"/>
    <circle cx="250.0" cy="91.7" r="1.2" fill="#c4b5fd" opacity="0.5"/>
    <circle cx="250.0" cy="33.3" r="1.2" fill="#c4b5fd" opacity="0.5"/>
    <circle cx="250.0" cy="-25.0" r="1.2" fill="#c4b5fd" opacity="0.5"/>
    <circle cx="272.3" cy="96.1" r="1.2" fill="#c4b5fd" opacity="0.5"/>
    <circle cx="294.6" cy="42.2" r="1.2" fill="#c4b5fd" opacity="0.5"/>
    <circle cx="317.0" cy="-11.7" r="1.2" fill="#c4b5fd" opacity="0.5"/>
    <circle cx="291.2" cy="108.8" r="1.2" fill="#c4b5fd" opacity="0.5"/>
    <circle cx="332.5" cy="67.5" r="1.2" fill="#c4b5fd" opacity="0.5"/>
    <circle cx="373.7" cy="26.3" r="1.2" fill="#c4b5fd" opacity="0.5"/>
    <circle cx="415.0" cy="-15.0" r="1.2" fill="#c4b5fd" opacity="0.5"/>
    <circle cx="303.9" cy="127.7" r="1.2" fill="#c4b5fd" opacity="0.5"/>
    <circle cx="357.8" cy="105.4" r="1.2" fill="#c4b5fd" opacity="0.5"/>
    <circle cx="411.7" cy="83.0" r="1.2" fill="#c4b5fd" opacity="0.5"/>
    <circle cx="465.6" cy="60.7" r="1.2" fill="#c4b5fd" opacity="0.5"/>
    <circle cx="519.5" cy="38.4" r="1.2" fill="#c4b5fd" opacity="0.5"/>
  </g>
  <text x="250" y="150" text-anchor="middle" dominant-baseline="central" font-family="-apple-system, BlinkMacSystemFont, 'Segoe UI', sans-serif" font-size="34" font-weight="700" letter-spacing="2" fill="#ffffff">the web</text>
</svg>